<svg width="28" height="25" viewBox="0 0 28 25" fill="none" xmlns="http://www.w3.org/2000/svg">
<path d="M27 4.28571H9.125M5.875 4.28571H1M27 20.7143H9.125M5.875 20.7143H1M18.875 12.5H1M27 12.5H22.125M7.5 1C7.93098 1 8.3443 1.17309 8.64905 1.48118C8.95379 1.78928 9.125 2.20714 9.125 2.64286V5.92857C9.125 6.36428 8.95379 6.78215 8.64905 7.09025C8.3443 7.39834 7.93098 7.57143 7.5 7.57143C7.06902 7.57143 6.6557 7.39834 6.35095 7.09025C6.04621 6.78215 5.875 6.36428 5.875 5.92857V2.64286C5.875 2.20714 6.04621 1.78928 6.35095 1.48118C6.6557 1.17309 7.06902 1 7.5 1ZM7.5 17.4286C7.93098 17.4286 8.3443 17.6017 8.64905 17.9098C8.95379 18.2178 9.125 18.6357 9.125 19.0714V22.3571C9.125 22.7929 8.95379 23.2107 8.64905 23.5188C8.3443 23.8269 7.93098 24 7.5 24C7.06902 24 6.6557 23.8269 6.35095 23.5188C6.04621 23.2107 5.875 22.7929 5.875 22.3571V19.0714C5.875 18.6357 6.04621 18.2178 6.35095 17.9098C6.6557 17.6017 7.06902 17.4286 7.5 17.4286ZM20.5 9.21429C20.931 9.21429 21.3443 9.38737 21.649 9.69547C21.9538 10.0036 22.125 10.4214 22.125 10.8571V14.1429C22.125 14.5786 21.9538 14.9964 21.649 15.3045C21.3443 15.6126 20.931 15.7857 20.5 15.7857C20.069 15.7857 19.6557 15.6126 19.351 15.3045C19.0462 14.9964 18.875 14.5786 18.875 14.1429V10.8571C18.875 10.4214 19.0462 10.0036 19.351 9.69547C19.6557 9.38737 20.069 9.21429 20.5 9.21429Z" stroke="#66FC6C" stroke-linecap="round" stroke-linejoin="round"/>
</svg>
