<svg width="25" height="25" viewBox="0 0 25 25" fill="none" xmlns="http://www.w3.org/2000/svg">
<path d="M6.25065 12.5C6.25065 13.0526 6.03116 13.5825 5.64046 13.9732C5.24976 14.3639 4.71985 14.5834 4.16732 14.5834C3.61478 14.5834 3.08488 14.3639 2.69418 13.9732C2.30348 13.5825 2.08398 13.0526 2.08398 12.5C2.08398 11.9475 2.30348 11.4176 2.69418 11.0269C3.08488 10.6362 3.61478 10.4167 4.16732 10.4167C4.71985 10.4167 5.24976 10.6362 5.64046 11.0269C6.03116 11.4176 6.25065 11.9475 6.25065 12.5ZM6.25065 12.5H9.37565C9.65192 12.5 9.91687 12.6098 10.1122 12.8051C10.3076 13.0005 10.4173 13.2654 10.4173 13.5417V19.7917C10.4173 20.068 10.3076 20.3329 10.1122 20.5283C9.91687 20.7236 9.65192 20.8334 9.37565 20.8334H6.25065M6.25065 20.8334C6.25065 21.3859 6.03116 21.9158 5.64046 22.3065C5.24976 22.6972 4.71985 22.9167 4.16732 22.9167C3.61478 22.9167 3.08488 22.6972 2.69418 22.3065C2.30348 21.9158 2.08398 21.3859 2.08398 20.8334C2.08398 20.2808 2.30348 19.7509 2.69418 19.3602C3.08488 18.9695 3.61478 18.75 4.16732 18.75C4.71985 18.75 5.24976 18.9695 5.64046 19.3602C6.03116 19.7509 6.25065 20.2808 6.25065 20.8334ZM2.08398 4.16671C2.08398 4.71924 2.30348 5.24915 2.69418 5.63985C3.08488 6.03055 3.61478 6.25004 4.16732 6.25004C4.71985 6.25004 5.24976 6.03055 5.64046 5.63985C6.03116 5.24915 6.25065 4.71924 6.25065 4.16671C6.25065 3.61417 6.03116 3.08427 5.64046 2.69357C5.24976 2.30287 4.71985 2.08337 4.16732 2.08337C3.61478 2.08337 3.08488 2.30287 2.69418 2.69357C2.30348 3.08427 2.08398 3.61417 2.08398 4.16671ZM18.7507 10.4167C18.7507 10.9692 18.9701 11.4991 19.3608 11.8898C19.7515 12.2805 20.2815 12.5 20.834 12.5C21.3865 12.5 21.9164 12.2805 22.3071 11.8898C22.6978 11.4991 22.9173 10.9692 22.9173 10.4167C22.9173 9.86417 22.6978 9.33427 22.3071 8.94357C21.9164 8.55287 21.3865 8.33337 20.834 8.33337C20.2815 8.33337 19.7515 8.55287 19.3608 8.94357C18.9701 9.33427 18.7507 9.86417 18.7507 10.4167Z" stroke="#66FC6C" stroke-width="2" stroke-linecap="round" stroke-linejoin="round"/>
<path d="M6.25 4.16675H13.5417C13.8179 4.16675 14.0829 4.27649 14.2782 4.47185C14.4736 4.6672 14.5833 4.93215 14.5833 5.20841V15.6251C14.5833 15.9013 14.4736 16.1663 14.2782 16.3617C14.0829 16.557 13.8179 16.6667 13.5417 16.6667H11.4583M14.5833 10.4167H18.75" stroke="#66FC6C" stroke-width="2" stroke-linecap="round" stroke-linejoin="round"/>
</svg>
