<svg width="25" height="25" viewBox="0 0 25 25" fill="none" xmlns="http://www.w3.org/2000/svg">
<path d="M4.16602 8.33337H20.8327M4.16602 8.33337V17.5C4.16602 18.6667 4.16602 19.25 4.3931 19.6959C4.59283 20.0879 4.91153 20.4066 5.30352 20.6063C5.74831 20.8334 6.33164 20.8334 7.49622 20.8334H17.5025C18.6671 20.8334 19.2493 20.8334 19.6941 20.6063C20.0868 20.4063 20.4056 20.0875 20.6056 19.6959C20.8327 19.25 20.8327 18.6688 20.8327 17.5042V8.33337M4.16602 8.33337V7.50004C4.16602 6.33337 4.16602 5.75004 4.3931 5.30421C4.5931 4.9115 4.91081 4.59379 5.30352 4.39379C5.74935 4.16671 6.33268 4.16671 7.49935 4.16671H8.33268M20.8327 8.33337V7.49692C20.8327 6.33233 20.8327 5.749 20.6056 5.30421C20.4055 4.9121 20.0865 4.59341 19.6941 4.39379C19.2493 4.16671 18.666 4.16671 17.4993 4.16671H16.666M8.33268 4.16671H16.666M8.33268 4.16671V2.08337M16.666 4.16671V2.08337" stroke="#45A254" stroke-width="2" stroke-linecap="round" stroke-linejoin="round"/>
</svg>
