<svg width="22" height="22" viewBox="0 0 22 22" fill="none" xmlns="http://www.w3.org/2000/svg">
<path d="M19.3125 11.647L19.8295 9.71497C20.4335 7.45997 20.7365 6.33297 20.5095 5.35697C20.3295 4.58646 19.9252 3.88662 19.3475 3.34597C18.6165 2.66097 17.4885 2.35897 15.2335 1.75497C12.9785 1.14997 11.8505 0.847969 10.8755 1.07497C10.105 1.25488 9.40511 1.65927 8.86446 2.23697C8.27746 2.86297 7.97146 3.77997 7.51646 5.44597L7.27246 6.35097L6.75546 8.28297C6.15046 10.538 5.84846 11.665 6.07546 12.641C6.25537 13.4115 6.65975 14.1113 7.23746 14.652C7.96846 15.337 9.09646 15.639 11.3515 16.244C13.3835 16.788 14.5005 17.087 15.4155 16.974C15.5155 16.962 15.6135 16.944 15.7095 16.922C16.4797 16.7426 17.1795 16.3389 17.7205 15.762C18.4055 15.03 18.7075 13.902 19.3125 11.647Z" stroke="#E9E9E9" stroke-width="1.5"/>
<path d="M15.4155 16.9739C15.2064 17.6143 14.8391 18.1915 14.3475 18.6519C13.6165 19.3369 12.4885 19.6389 10.2335 20.2429C7.97846 20.8469 6.85046 21.1499 5.87546 20.9219C5.10507 20.7423 4.40524 20.3383 3.86446 19.7609C3.17946 19.0299 2.87646 17.9019 2.27246 15.6469L1.75546 13.7149C1.15046 11.4599 0.848458 10.3319 1.07546 9.35695C1.25537 8.58644 1.65975 7.8866 2.23746 7.34595C2.96846 6.66095 4.09646 6.35895 6.35146 5.75395C6.77746 5.63995 7.16446 5.53595 7.51646 5.44495" stroke="#E9E9E9" stroke-width="1.5"/>
<path d="M10.777 9L15.607 10.294M10 11.898L12.898 12.674" stroke="#E9E9E9" stroke-width="1.5" stroke-linecap="round"/>
</svg>
